HIERARCHY
ROOT mixamorig:Hips
{
	OFFSET 0.000000 103.991501 0.000000
	CHANNELS 6 Xposition Yposition Zposition Xrotation Yrotation Zrotation
	JOINT mixamorig:Spine
	{
		OFFSET 0.000000 10.181602 0.131500
		CHANNELS 6 Xposition Yposition Zposition Xrotation Yrotation Zrotation
		JOINT mixamorig:Spine1
		{
			OFFSET 0.000000 10.083504 -1.000800
			CHANNELS 6 Xposition Yposition Zposition Xrotation Yrotation Zrotation
			JOINT mixamorig:Spine2
			{
				OFFSET 0.000000 9.100006 -1.373400
				CHANNELS 6 Xposition Yposition Zposition Xrotation Yrotation Zrotation
				JOINT mixamorig:Neck
				{
					OFFSET 0.000000 16.671707 -2.516200
					CHANNELS 6 Xposition Yposition Zposition Xrotation Yrotation Zrotation
					JOINT mixamorig:Head
					{
						OFFSET 0.000000 9.617905 1.685000
						CHANNELS 6 Xposition Yposition Zposition Xrotation Yrotation Zrotation
						JOINT mixamorig:HeadTop_End
						{
							OFFSET 0.000000 17.815201 2.585000
							CHANNELS 6 Xposition Yposition Zposition Xrotation Yrotation Zrotation
							End Site
							{
								OFFSET 0.000000 13.794495 0.000000
							}
						}
						JOINT mixamorig:LeftEye
						{
							OFFSET 3.067600 6.409500 9.283600
							CHANNELS 6 Xposition Yposition Zposition Xrotation Yrotation Zrotation
							End Site
							{
								OFFSET 0.000000 13.794495 0.000000
							}
						}
						JOINT mixamorig:RightEye
						{
							OFFSET -3.067600 6.409500 9.283500
							CHANNELS 6 Xposition Yposition Zposition Xrotation Yrotation Zrotation
							End Site
							{
								OFFSET 0.000000 13.794495 0.000000
							}
						}
					}
				}
				JOINT mixamorig:LeftShoulder
				{
					OFFSET 4.570400 10.945999 -2.628000
					CHANNELS 6 Xposition Yposition Zposition Xrotation Yrotation Zrotation
					JOINT mixamorig:LeftArm
					{
						OFFSET 10.592400 -0.524597 -2.232100
						CHANNELS 6 Xposition Yposition Zposition Xrotation Yrotation Zrotation
						JOINT mixamorig:LeftForeArm
						{
							OFFSET 27.841499 0.000000 0.000000
							CHANNELS 6 Xposition Yposition Zposition Xrotation Yrotation Zrotation
							JOINT mixamorig:LeftHand
							{
								OFFSET 28.328800 0.000000 0.000000
								CHANNELS 6 Xposition Yposition Zposition Xrotation Yrotation Zrotation
								JOINT mixamorig:LeftHandThumb1
								{
									OFFSET 2.466103 -1.576218 2.681689
									CHANNELS 6 Xposition Yposition Zposition Xrotation Yrotation Zrotation
									JOINT mixamorig:LeftHandThumb2
									{
										OFFSET 3.229782 -1.864716 1.864716
										CHANNELS 6 Xposition Yposition Zposition Xrotation Yrotation Zrotation
										JOINT mixamorig:LeftHandThumb3
										{
											OFFSET 2.652611 -1.531494 1.531488
											CHANNELS 6 Xposition Yposition Zposition Xrotation Yrotation Zrotation
											JOINT mixamorig:LeftHandThumb4
											{
												OFFSET 1.954605 -1.128494 1.128493
												CHANNELS 6 Xposition Yposition Zposition Xrotation Yrotation Zrotation
												End Site
												{
													OFFSET -0.000404 2.523392 0.000683
												}
											}
										}
									}
								}
								JOINT mixamorig:LeftHandIndex1
								{
									OFFSET 9.109299 -0.518112 2.259867
									CHANNELS 6 Xposition Yposition Zposition Xrotation Yrotation Zrotation
									JOINT mixamorig:LeftHandIndex2
									{
										OFFSET 3.676399 0.000000 0.000000
										CHANNELS 6 Xposition Yposition Zposition Xrotation Yrotation Zrotation
										JOINT mixamorig:LeftHandIndex3
										{
											OFFSET 2.883102 0.000000 0.000000
											CHANNELS 6 Xposition Yposition Zposition Xrotation Yrotation Zrotation
											JOINT mixamorig:LeftHandIndex4
											{
												OFFSET 2.392700 0.000000 0.000000
												CHANNELS 6 Xposition Yposition Zposition Xrotation Yrotation Zrotation
												End Site
												{
													OFFSET 0.000000 2.392700 0.001080
												}
											}
										}
									}
								}
								JOINT mixamorig:LeftHandMiddle1
								{
									OFFSET 9.533401 0.000000 0.000000
									CHANNELS 6 Xposition Yposition Zposition Xrotation Yrotation Zrotation
									JOINT mixamorig:LeftHandMiddle2
									{
										OFFSET 3.698196 0.000000 0.000000
										CHANNELS 6 Xposition Yposition Zposition Xrotation Yrotation Zrotation
										JOINT mixamorig:LeftHandMiddle3
										{
											OFFSET 2.950897 0.000000 0.000000
											CHANNELS 6 Xposition Yposition Zposition Xrotation Yrotation Zrotation
											JOINT mixamorig:LeftHandMiddle4
											{
												OFFSET 2.833900 0.000000 0.000000
												CHANNELS 6 Xposition Yposition Zposition Xrotation Yrotation Zrotation
												End Site
												{
													OFFSET 0.000000 2.833893 0.001278
												}
											}
										}
									}
								}
								JOINT mixamorig:LeftHandRing1
								{
									OFFSET 9.104500 -0.043060 -1.865119
									CHANNELS 6 Xposition Yposition Zposition Xrotation Yrotation Zrotation
									JOINT mixamorig:LeftHandRing2
									{
										OFFSET 3.153999 0.000000 0.000000
										CHANNELS 6 Xposition Yposition Zposition Xrotation Yrotation Zrotation
										JOINT mixamorig:LeftHandRing3
										{
											OFFSET 2.937698 0.000000 0.000000
											CHANNELS 6 Xposition Yposition Zposition Xrotation Yrotation Zrotation
											JOINT mixamorig:LeftHandRing4
											{
												OFFSET 2.647499 0.000000 0.000000
												CHANNELS 6 Xposition Yposition Zposition Xrotation Yrotation Zrotation
												End Site
												{
													OFFSET 0.000000 2.647507 0.001195
												}
											}
										}
									}
								}
								JOINT mixamorig:LeftHandPinky1
								{
									OFFSET 8.077797 -0.486984 -3.806321
									CHANNELS 6 Xposition Yposition Zposition Xrotation Yrotation Zrotation
									JOINT mixamorig:LeftHandPinky2
									{
										OFFSET 3.599998 0.000000 0.000000
										CHANNELS 6 Xposition Yposition Zposition Xrotation Yrotation Zrotation
										JOINT mixamorig:LeftHandPinky3
										{
											OFFSET 2.114197 0.000000 0.000000
											CHANNELS 6 Xposition Yposition Zposition Xrotation Yrotation Zrotation
											JOINT mixamorig:LeftHandPinky4
											{
												OFFSET 1.975700 0.000000 0.000000
												CHANNELS 6 Xposition Yposition Zposition Xrotation Yrotation Zrotation
												End Site
												{
													OFFSET 0.000000 1.975693 0.000892
												}
											}
										}
									}
								}
							}
						}
					}
				}
				JOINT mixamorig:RightShoulder
				{
					OFFSET -4.570000 10.946198 -2.628000
					CHANNELS 6 Xposition Yposition Zposition Xrotation Yrotation Zrotation
					JOINT mixamorig:RightArm
					{
						OFFSET -10.592800 -0.524796 -2.232100
						CHANNELS 6 Xposition Yposition Zposition Xrotation Yrotation Zrotation
						JOINT mixamorig:RightForeArm
						{
							OFFSET -27.841499 0.000000 0.000000
							CHANNELS 6 Xposition Yposition Zposition Xrotation Yrotation Zrotation
							JOINT mixamorig:RightHand
							{
								OFFSET -28.328800 0.000000 0.000000
								CHANNELS 6 Xposition Yposition Zposition Xrotation Yrotation Zrotation
								JOINT mixamorig:RightHandPinky1
								{
									OFFSET -8.076698 -0.486725 -3.806227
									CHANNELS 6 Xposition Yposition Zposition Xrotation Yrotation Zrotation
									JOINT mixamorig:RightHandPinky2
									{
										OFFSET -3.599998 0.000000 0.000000
										CHANNELS 6 Xposition Yposition Zposition Xrotation Yrotation Zrotation
										JOINT mixamorig:RightHandPinky3
										{
											OFFSET -2.114197 0.000000 0.000000
											CHANNELS 6 Xposition Yposition Zposition Xrotation Yrotation Zrotation
											JOINT mixamorig:RightHandPinky4
											{
												OFFSET -1.975700 0.000000 0.000000
												CHANNELS 6 Xposition Yposition Zposition Xrotation Yrotation Zrotation
												End Site
												{
													OFFSET 0.000000 1.975693 0.000919
												}
											}
										}
									}
								}
								JOINT mixamorig:RightHandRing1
								{
									OFFSET -9.103600 -0.043030 -1.865120
									CHANNELS 6 Xposition Yposition Zposition Xrotation Yrotation Zrotation
									JOINT mixamorig:RightHandRing2
									{
										OFFSET -3.153999 0.000000 0.000000
										CHANNELS 6 Xposition Yposition Zposition Xrotation Yrotation Zrotation
										JOINT mixamorig:RightHandRing3
										{
											OFFSET -2.937698 0.000000 0.000000
											CHANNELS 6 Xposition Yposition Zposition Xrotation Yrotation Zrotation
											JOINT mixamorig:RightHandRing4
											{
												OFFSET -2.647499 0.000000 0.000000
												CHANNELS 6 Xposition Yposition Zposition Xrotation Yrotation Zrotation
												End Site
												{
													OFFSET 0.000000 2.647507 0.001231
												}
											}
										}
									}
								}
								JOINT mixamorig:RightHandMiddle1
								{
									OFFSET -9.532501 0.000000 0.000000
									CHANNELS 6 Xposition Yposition Zposition Xrotation Yrotation Zrotation
									JOINT mixamorig:RightHandMiddle2
									{
										OFFSET -3.698196 0.000000 0.000000
										CHANNELS 6 Xposition Yposition Zposition Xrotation Yrotation Zrotation
										JOINT mixamorig:RightHandMiddle3
										{
											OFFSET -2.950897 0.000000 0.000000
											CHANNELS 6 Xposition Yposition Zposition Xrotation Yrotation Zrotation
											JOINT mixamorig:RightHandMiddle4
											{
												OFFSET -2.833900 0.000000 0.000000
												CHANNELS 6 Xposition Yposition Zposition Xrotation Yrotation Zrotation
												End Site
												{
													OFFSET 0.000000 2.833893 0.001318
												}
											}
										}
									}
								}
								JOINT mixamorig:RightHandIndex1
								{
									OFFSET -9.108299 -0.517853 2.259859
									CHANNELS 6 Xposition Yposition Zposition Xrotation Yrotation Zrotation
									JOINT mixamorig:RightHandIndex2
									{
										OFFSET -3.676399 0.000000 0.000000
										CHANNELS 6 Xposition Yposition Zposition Xrotation Yrotation Zrotation
										JOINT mixamorig:RightHandIndex3
										{
											OFFSET -2.883102 0.000000 0.000000
											CHANNELS 6 Xposition Yposition Zposition Xrotation Yrotation Zrotation
											JOINT mixamorig:RightHandIndex4
											{
												OFFSET -2.392700 0.000000 0.000000
												CHANNELS 6 Xposition Yposition Zposition Xrotation Yrotation Zrotation
												End Site
												{
													OFFSET 0.000000 2.392700 0.001113
												}
											}
										}
									}
								}
								JOINT mixamorig:RightHandThumb1
								{
									OFFSET -2.464798 -1.573944 2.681868
									CHANNELS 6 Xposition Yposition Zposition Xrotation Yrotation Zrotation
									JOINT mixamorig:RightHandThumb2
									{
										OFFSET -3.229782 -1.864716 1.864716
										CHANNELS 6 Xposition Yposition Zposition Xrotation Yrotation Zrotation
										JOINT mixamorig:RightHandThumb3
										{
											OFFSET -2.652542 -1.531448 1.531448
											CHANNELS 6 Xposition Yposition Zposition Xrotation Yrotation Zrotation
											JOINT mixamorig:RightHandThumb4
											{
												OFFSET -1.954605 -1.128494 1.128493
												CHANNELS 6 Xposition Yposition Zposition Xrotation Yrotation Zrotation
												End Site
												{
													OFFSET 0.000412 2.523392 0.000704
												}
											}
										}
									}
								}
							}
						}
					}
				}
			}
		}
	}
	JOINT mixamorig:LeftUpLeg
	{
		OFFSET 8.207800 -6.751701 -1.599600
		CHANNELS 6 Xposition Yposition Zposition Xrotation Yrotation Zrotation
		JOINT mixamorig:LeftLeg
		{
			OFFSET 0.000000 -44.370499 0.284600
			CHANNELS 6 Xposition Yposition Zposition Xrotation Yrotation Zrotation
			JOINT mixamorig:LeftFoot
			{
				OFFSET 0.000000 -44.427898 -2.982200
				CHANNELS 6 Xposition Yposition Zposition Xrotation Yrotation Zrotation
				JOINT mixamorig:LeftToeBase
				{
					OFFSET 0.000000 -8.728700 10.710600
					CHANNELS 6 Xposition Yposition Zposition Xrotation Yrotation Zrotation
					JOINT mixamorig:LeftToe_End
					{
						OFFSET 0.000000 -0.000700 9.278099
						CHANNELS 6 Xposition Yposition Zposition Xrotation Yrotation Zrotation
						End Site
						{
							OFFSET 0.000000 9.278100 0.000000
						}
					}
				}
			}
		}
	}
	JOINT mixamorig:RightUpLeg
	{
		OFFSET -8.207800 -6.751701 -1.599600
		CHANNELS 6 Xposition Yposition Zposition Xrotation Yrotation Zrotation
		JOINT mixamorig:RightLeg
		{
			OFFSET 0.000000 -44.370499 0.286200
			CHANNELS 6 Xposition Yposition Zposition Xrotation Yrotation Zrotation
			JOINT mixamorig:RightFoot
			{
				OFFSET 0.000000 -44.427700 -2.983800
				CHANNELS 6 Xposition Yposition Zposition Xrotation Yrotation Zrotation
				JOINT mixamorig:RightToeBase
				{
					OFFSET 0.000000 -8.728700 10.710600
					CHANNELS 6 Xposition Yposition Zposition Xrotation Yrotation Zrotation
					JOINT mixamorig:RightToe_End
					{
						OFFSET 0.000000 -0.000700 9.278100
						CHANNELS 6 Xposition Yposition Zposition Xrotation Yrotation Zrotation
						End Site
						{
							OFFSET 0.000000 9.278100 0.000000
						}
					}
				}
			}
		}
	}
}
MOTION
Frames: 3
Frame Time: 0.016667
-18.563213 47.456596 -42.298965 22.080081 -11.354288 7.644551 -0.000000 10.181605 0.131500 -1.281534 1.193998 2.528281 0.000001 10.083508 -1.000802 -2.376010 4.281361 -0.242962 -0.000003 9.100005 -1.373399 -2.423199 4.257947 -0.248999 0.000001 16.671703 -2.516202 -3.648278 -3.986763 -0.600269 -0.000003 9.617903 1.685003 -42.831116 -28.261716 11.490088 0.000002 17.815201 2.584993 -0.000001 0.000002 -0.000001 3.067601 6.409500 9.283594 -0.000001 0.000002 -0.000001 -3.067597 6.409500 9.283493 -0.000001 0.000002 -0.000001 4.570401 10.945983 -2.628001 0.368850 5.698441 -10.412863 10.592409 -0.524578 -2.232100 -38.404665 -29.005344 -44.662583 27.841499 -0.000002 0.000000 0.000005 -14.394192 -0.000005 28.328793 0.000006 0.000003 2.176884 -1.328532 -5.075490 2.466093 -1.576204 2.681691 -1.540051 3.690199 6.142356 3.229791 -1.864715 1.864713 3.939055 7.948711 0.746816 2.652619 -1.531500 1.531487 -0.579467 1.575005 2.538722 1.954607 -1.128492 1.128493 0.000001 -0.000002 -0.000004 9.109287 -0.518113 2.259867 0.000001 0.000001 0.000002 3.676391 0.000002 -0.000000 -0.000002 0.000001 0.000003 2.883096 0.000003 -0.000004 0.000000 -0.000002 -0.000001 2.392694 0.000003 -0.000003 0.000000 -0.000002 -0.000001 9.533395 0.000001 -0.000000 0.000005 -0.001926 0.015992 3.698198 -0.000011 -0.000002 -0.000005 0.001926 -0.015988 2.950904 -0.000002 0.000001 -0.000003 -0.000002 0.000001 2.833904 -0.000001 -0.000002 -0.000000 -0.000002 -0.000001 9.104495 -0.043063 -1.865119 0.000000 0.000001 0.000002 3.153997 -0.000006 0.000003 0.000001 0.000000 -0.000020 2.937693 -0.000003 0.000005 -0.000004 -0.000000 0.000002 2.647496 -0.000015 -0.000005 -0.000002 0.000001 -0.000002 8.077782 -0.486974 -3.806319 -0.018088 4.054250 0.511063 3.600000 -0.000008 -0.000001 -0.018095 -4.054244 -0.511049 2.114197 0.000001 -0.000002 -0.000002 0.000002 -0.000000 1.975694 0.000002 -0.000002 0.000001 0.000000 -0.000000 -4.569998 10.946175 -2.628004 0.487596 -4.187468 10.332968 -10.592803 -0.524798 -2.232102 -28.322735 9.561437 53.112729 -27.841503 0.000005 -0.000000 -0.000008 38.892620 -0.000004 -28.328798 0.000015 0.000005 22.884863 -0.989341 12.544430 -8.076701 -0.486715 -3.806228 -0.000003 0.000001 0.000001 -3.599989 -0.000001 0.000000 -0.000002 -0.000001 0.000009 -2.114195 0.000001 0.000004 -0.000000 0.000002 -0.000001 -1.975708 -0.000002 -0.000001 -0.000000 -0.000000 0.000000 -9.103603 -0.043029 -1.865117 -0.000002 0.000001 -0.000002 -3.153996 -0.000011 -0.000004 -0.000009 -0.000003 -0.000004 -2.937697 0.000001 0.000001 0.000001 0.000000 -0.000001 -2.647490 -0.000003 0.000000 -0.000003 0.000000 -0.000001 -9.532497 0.000001 0.000004 -0.000000 -0.000000 -0.000002 -3.698197 -0.000005 0.000005 0.000002 -0.000002 0.000016 -2.950891 -0.000004 0.000001 0.000002 -0.000012 -0.000005 -2.833899 -0.000016 -0.000003 0.000001 -0.000003 0.000003 -9.108297 -0.517852 2.259859 -0.000002 0.000001 -0.000001 -3.676404 -0.000018 -0.000001 -0.000002 -0.000000 0.000011 -2.883107 -0.000018 -0.000002 0.000002 -0.000000 0.000002 -2.392693 -0.000016 -0.000001 -0.000003 -0.000001 0.000000 -2.464804 -1.573952 2.681870 -1.849252 -3.581802 -6.586149 -3.229782 -1.864664 1.864717 4.637205 -8.634113 -0.225415 -2.652549 -1.531446 1.531443 -1.273758 0.137306 -2.094865 -1.954603 -1.128507 1.128494 0.000004 -0.000002 -0.000001 8.207792 -6.751702 -1.599597 -52.736119 0.190819 47.288142 -0.000001 -44.370499 0.284596 118.735025 1.618718 2.264395 0.000001 -44.427902 -2.982199 -4.824852 0.048197 0.007978 -0.000003 -8.728696 10.710597 -58.487941 4.440522 -14.649719 0.000001 -0.000697 9.278097 -0.000002 -0.000000 -0.000000 -8.207797 -6.751704 -1.599603 6.052774 -1.077185 -16.520471 0.000003 -44.370499 0.286197 83.087154 -3.675286 -7.762573 -0.000002 -44.427696 -2.983799 -5.114839 -0.059454 1.697779 -0.000002 -8.728705 10.710602 -0.000001 0.000000 -0.000002 -0.000000 -0.000699 9.278096 -0.000000 -0.000000 -0.000000 
-18.717443 46.419861 -40.581600 24.538228 -13.390617 7.236978 -0.000002 10.181605 0.131503 -1.407838 1.367699 3.028049 -0.000001 10.083497 -1.000799 -2.654182 4.793828 0.610064 0.000001 9.100007 -1.373398 -2.707559 4.768225 0.604742 0.000003 16.671713 -2.516205 -3.970086 -3.995951 -0.561074 0.000001 9.617922 1.684996 -43.417945 -28.092732 11.131777 0.000004 17.815201 2.584997 -0.000003 -0.000001 -0.000003 3.067603 6.409501 9.283600 -0.000003 -0.000001 -0.000003 -3.067599 6.409501 9.283503 -0.000003 -0.000001 -0.000003 4.570402 10.946004 -2.628000 0.360504 5.664115 -10.216515 10.592399 -0.524591 -2.232103 -39.204313 -30.491576 -44.277449 27.841497 0.000001 0.000002 0.000006 -15.124909 0.000007 28.328794 -0.000008 0.000002 1.799762 -1.027013 -4.781287 2.466099 -1.576203 2.681689 -1.540049 3.690194 6.142357 3.229789 -1.864720 1.864714 3.939051 7.948685 0.746805 2.652610 -1.531478 1.531491 -0.579465 1.574995 2.538709 1.954601 -1.128482 1.128495 -0.000004 -0.000002 -0.000001 9.109294 -0.518112 2.259869 0.000002 0.000002 -0.000001 3.676397 -0.000011 0.000001 0.000001 -0.000000 0.000004 2.883098 0.000002 -0.000001 0.000001 -0.000001 0.000002 2.392696 0.000002 -0.000002 0.000001 -0.000001 0.000002 9.533400 0.000017 0.000003 0.000005 -0.001929 0.015988 3.698200 -0.000023 -0.000001 -0.000004 0.001925 -0.015985 2.950899 0.000002 0.000002 0.000001 0.000002 -0.000001 2.833906 0.000014 -0.000004 -0.000001 -0.000003 0.000001 9.104500 -0.043062 -1.865118 0.000001 0.000001 0.000000 3.153995 0.000004 -0.000001 0.000002 0.000002 -0.000020 2.937696 -0.000004 -0.000004 -0.000004 -0.000000 0.000001 2.647493 -0.000002 -0.000003 0.000000 0.000001 -0.000001 8.077784 -0.487001 -3.806318 -0.018088 4.054250 0.511062 3.599998 -0.000016 0.000001 -0.018090 -4.054244 -0.511051 2.114199 -0.000000 0.000003 0.000003 -0.000001 0.000002 1.975700 0.000016 -0.000002 0.000001 0.000003 0.000003 -4.569996 10.946193 -2.627997 0.483446 -4.204600 10.309610 -10.592789 -0.524798 -2.232100 -32.098576 12.216639 52.322637 -27.841509 0.000006 -0.000003 0.000003 36.652557 -0.000008 -28.328794 0.000001 -0.000003 23.274824 3.577819 7.069689 -8.076706 -0.486714 -3.806234 0.000001 -0.000002 0.000006 -3.600001 -0.000004 0.000000 -0.000003 -0.000003 0.000010 -2.114195 -0.000017 -0.000004 0.000003 0.000001 -0.000001 -1.975710 0.000003 0.000002 0.000003 -0.000003 0.000001 -9.103610 -0.043031 -1.865129 -0.000000 -0.000003 0.000001 -3.154003 -0.000007 0.000003 0.000000 -0.000009 -0.000004 -2.937696 -0.000002 -0.000002 -0.000001 0.000002 0.000002 -2.647490 0.000001 -0.000002 -0.000000 0.000000 -0.000001 -9.532506 -0.000001 -0.000004 -0.000000 -0.000003 0.000002 -3.698194 -0.000003 0.000005 0.000004 -0.000004 0.000014 -2.950890 -0.000015 -0.000005 0.000004 -0.000011 -0.000005 -2.833897 -0.000010 0.000004 0.000004 0.000001 0.000001 -9.108305 -0.517854 2.259857 0.000000 -0.000003 0.000002 -3.676400 0.000012 0.000001 -0.000002 -0.000003 0.000016 -2.883099 -0.000000 -0.000006 0.000001 -0.000003 0.000002 -2.392697 -0.000001 0.000002 -0.000001 0.000003 -0.000002 -2.464812 -1.573951 2.681863 -1.849249 -3.581805 -6.586149 -3.229781 -1.864709 1.864716 4.637202 -8.634128 -0.225412 -2.652543 -1.531451 1.531448 -1.273760 0.137315 -2.094864 -1.954604 -1.128507 1.128495 0.000001 -0.000000 -0.000000 8.207794 -6.751703 -1.599599 -52.417771 0.439994 47.585532 0.000000 -44.370499 0.284600 118.959943 1.178981 2.363198 0.000001 -44.427906 -2.982199 -4.550714 0.006349 0.396999 -0.000002 -8.728693 10.710596 -60.117884 6.348918 -18.040387 -0.000000 -0.000697 9.278098 0.000002 0.000000 -0.000001 -8.207801 -6.751694 -1.599596 6.211920 -0.238449 -15.920616 -0.000001 -44.370499 0.286205 79.901131 -4.226250 -8.856801 -0.000001 -44.427704 -2.983804 -5.248239 -0.070666 1.844096 0.000001 -8.728706 10.710598 0.000001 -0.000005 -0.000002 -0.000001 -0.000705 9.278104 0.000000 -0.000000 0.000000 
-18.792356 45.328232 -38.905304 27.078309 -15.619703 6.968832 -0.000000 10.181612 0.131502 -1.507396 1.599867 3.450522 -0.000002 10.083503 -1.000802 -2.882094 5.346182 1.448425 0.000001 9.100005 -1.373408 -2.940012 5.319484 1.444236 -0.000001 16.671701 -2.516199 -4.246531 -3.945069 -0.519149 -0.000002 9.617899 1.685002 -44.107558 -27.611958 10.723040 -0.000000 17.815186 2.585009 -0.000002 0.000002 -0.000001 3.067606 6.409500 9.283607 -0.000002 0.000002 -0.000001 -3.067599 6.409500 9.283508 -0.000002 0.000002 -0.000001 4.570402 10.945998 -2.627999 0.356435 5.651782 -10.129149 10.592403 -0.524587 -2.232100 -39.862825 -32.039796 -43.492510 27.841503 -0.000002 0.000002 -0.000005 -16.006314 0.000002 28.328800 -0.000009 0.000001 1.542755 -0.916461 -4.475341 2.466101 -1.576221 2.681687 -1.540048 3.690198 6.142355 3.229785 -1.864719 1.864718 3.939058 7.948715 0.746812 2.652612 -1.531500 1.531490 -0.579469 1.575000 2.538709 1.954603 -1.128466 1.128494 -0.000000 0.000003 0.000001 9.109295 -0.518114 2.259864 0.000001 0.000001 -0.000002 3.676398 -0.000010 -0.000003 0.000001 -0.000002 0.000004 2.883097 0.000002 0.000003 0.000003 -0.000002 -0.000001 2.392695 0.000002 0.000003 0.000003 -0.000002 -0.000001 9.533404 -0.000001 -0.000004 0.000005 -0.001927 0.015989 3.698201 -0.000008 -0.000000 -0.000003 0.001928 -0.015983 2.950901 -0.000003 -0.000002 0.000000 -0.000002 0.000002 2.833909 0.000000 0.000000 0.000002 0.000000 -0.000000 9.104494 -0.043062 -1.865122 0.000002 0.000000 -0.000001 3.153998 -0.000003 -0.000004 -0.000002 -0.000002 -0.000021 2.937684 -0.000005 -0.000002 -0.000002 -0.000001 0.000003 2.647496 -0.000005 -0.000004 -0.000002 -0.000001 -0.000002 8.077785 -0.486988 -3.806324 -0.018085 4.054253 0.511062 3.600008 -0.000022 0.000001 -0.018092 -4.054246 -0.511052 2.114196 0.000017 0.000002 0.000002 0.000003 -0.000000 1.975696 0.000012 0.000001 -0.000001 0.000001 0.000002 -4.569999 10.946184 -2.627999 0.479798 -4.213282 10.257172 -10.592796 -0.524797 -2.232104 -36.632333 14.546069 52.350487 -27.841503 0.000005 0.000002 -0.000020 33.785920 0.000022 -28.328800 0.000014 -0.000008 24.010155 6.692073 2.835492 -8.076700 -0.486711 -3.806224 -0.000000 0.000003 0.000001 -3.600006 -0.000015 -0.000004 -0.000003 -0.000002 0.000009 -2.114194 0.000001 -0.000000 -0.000001 -0.000002 -0.000001 -1.975710 0.000016 -0.000002 0.000000 -0.000001 0.000001 -9.103599 -0.043030 -1.865125 0.000002 0.000003 -0.000001 -3.153995 -0.000013 -0.000004 -0.000004 -0.000009 -0.000004 -2.937696 0.000001 -0.000001 -0.000001 0.000000 -0.000001 -2.647481 -0.000002 0.000006 -0.000003 0.000002 -0.000001 -9.532504 -0.000000 0.000000 -0.000000 0.000002 -0.000002 -3.698198 -0.000008 -0.000000 0.000001 -0.000003 0.000013 -2.950891 -0.000003 0.000000 -0.000002 -0.000008 -0.000008 -2.833898 -0.000013 -0.000001 0.000000 0.000001 -0.000001 -9.108296 -0.517853 2.259863 -0.000001 0.000003 -0.000001 -3.676402 0.000011 -0.000002 -0.000002 0.000002 0.000013 -2.883100 -0.000002 0.000005 0.000000 0.000000 -0.000001 -2.392690 -0.000002 -0.000006 0.000000 0.000000 -0.000001 -2.464803 -1.573962 2.681871 -1.849254 -3.581796 -6.586148 -3.229781 -1.864712 1.864720 4.637196 -8.634126 -0.225406 -2.652534 -1.531459 1.531446 -1.273762 0.137309 -2.094868 -1.954617 -1.128495 1.128492 0.000000 0.000003 -0.000001 8.207796 -6.751693 -1.599596 -52.155659 0.883403 47.892368 -0.000001 -44.370502 0.284597 119.344087 1.002512 2.482163 0.000000 -44.427906 -2.982198 -4.492368 -0.016606 0.594894 0.000003 -8.728699 10.710598 -60.534081 8.515316 -21.520717 0.000002 -0.000700 9.278094 -0.000001 0.000003 -0.000000 -8.207800 -6.751697 -1.599599 6.075583 0.595618 -15.733498 -0.000002 -44.370502 0.286207 76.804261 -4.765268 -9.928664 -0.000004 -44.427711 -2.983801 -5.264038 -0.072523 1.941712 -0.000001 -8.728703 10.710607 0.000045 -0.000007 0.000001 -0.000000 -0.000704 9.278102 0.000001 -0.000001 0.000001 
